<?xml version="1.0" encoding="UTF-8"?><svg id="Sem_Título_Image" xmlns="http://www.w3.org/2000/svg" viewBox="0 0 1012.5 329"><path d="M680.98,223.14c.64-2.71,1.57-5.39,1.86-8.14,.55-5.27,.22-10.67,1.2-15.83,1.26-6.68,.64-13.33,.79-19.99,.09-4.23-.07-8.49-.53-12.69-.46-4.19-1.57-8.31-2.14-12.49-.84-6.19-1.75-12.4-2.11-18.63-.46-8.13,.25-16.38-.74-24.43-1.14-9.31-.44-18.58-.79-27.85-.03-.81-.15-1.75,.2-2.4,.34-.66,1.24-1.44,1.86-1.42,.62,.03,1.36,.9,1.74,1.57,.29,.5,.11,1.27,.11,1.93,0,4.9-.17,9.81,.05,14.69,.25,5.6,.97,11.18,1.26,16.77,.23,4.31,.26,8.65,.13,12.97-.26,9.08,.5,18.01,2.32,26.93,2.75,13.48,3.03,27.18,2.51,40.86-.29,7.62-1.28,15.23-2.33,22.8-.44,3.17-1.86,6.21-2.8,9.32-.28,.92-.59,1.88-.62,2.82-.07,1.87-.63,3.35-2.73,3.29-2.02-.05-2.95-1.45-3.17-3.37-.25-2.18-.29-4.42-.82-6.53-1.61-6.45-2.77-13.05-6.05-18.97-4.4-7.95-5.37-16.91-7.7-25.48-1.79-6.58-4.19-12.99-6.31-19.49-.73-2.24-1.39-4.51-2.15-6.74-1.1-3.22-2.31-6.4-3.39-9.62-1.51-4.53-2.79-9.14-4.45-13.61-.77-2.08-2.37-3.83-3.28-5.88-1.71-3.84-3.55-7.68-4.69-11.7-1.79-6.3-3.05-12.76-4.52-19.15-.41-1.77-.74-3.56-1.11-5.35l-.82-.06c-.55,2.55-1.08,5.1-1.66,7.65-1.45,6.32-2.81,12.65-4.4,18.93-1.71,6.75-3.79,13.4-5.42,20.17-1.58,6.51-2.69,13.14-4.2,19.67-1.54,6.65-3.41,13.23-4.96,19.88-.43,1.87-.11,3.91-.33,5.84-.61,5.32-1.41,10.62-1.98,15.94-.41,3.88-.15,7.89-.95,11.68-1.47,6.97-.65,13.97-.88,20.95-.24,7.41-.35,14.83-.51,22.24-.03,1.31-.22,2.56-1.88,2.6-1.64,.04-2.04-1.16-2.02-2.49,.11-6.11,.27-12.22,.41-18.33,.03-1.22,.13-2.45,.04-3.67-.76-10.46,.91-20.79,1.65-31.17,.55-7.77,1.35-15.53,2.39-23.25,.54-4.01,1.84-7.92,2.82-11.87,1.17-4.73,2.48-9.44,3.5-14.2,.65-3.02,.64-6.18,1.35-9.17,1.03-4.32,2.53-8.53,3.66-12.84,1.7-6.49,3.27-13.02,4.85-19.54,1.58-6.52,3.22-13.03,4.62-19.6,.43-2.04,.12-4.23,.17-6.35,.03-1.4-.07-2.96,1.85-3.19,1.94-.23,3.82,.37,4.34,2.35,1.51,5.79,2.63,11.69,4.15,17.48,1.46,5.54,3.15,11.03,4.91,16.48,1.02,3.15,2.31,6.22,3.64,9.26,1.99,4.5,4.18,8.91,6.16,13.41,.54,1.24,.5,2.72,.92,4.02,1.07,3.31,2.26,6.58,3.39,9.88,1.74,5.08,3.57,10.13,5.15,15.25,1.48,4.81,2.71,9.69,4.01,14.55,1,3.77,1.89,7.56,2.9,11.33,1.69,6.28,4.62,12.07,7.09,18.05,1.81,4.37,2.55,9.18,3.77,13.79l.65,.14Z"/><path d="M897.79,98.1c-.75,8.46-1.82,18.16-2.42,27.88-.57,9.19-4.31,17.43-7.06,25.97-2.71,8.4-6.78,16.16-11.45,23.61-3.27,5.22-6.67,10.33-11.53,14.32-2.02,1.66-3.43,4.22-5.64,5.44-4.75,2.63-8.51,6.92-14.43,7.73-4.8,.65-9.57,1.51-14.25,.28-3.64-.95-7.08-2.73-10.53-4.32-3.14-1.44-6.22-3.01-9.22-4.73-2.75-1.57-4.1-4.3-4.99-7.19-2.95-9.6-4.34-19.5-5.84-29.4-.74-4.89-2.16-9.67-2.96-14.55-.7-4.24-1.01-8.54-1.38-12.83-.15-1.78,.19-3.62-.06-5.38-.98-6.78,2.34-11.96,5.79-17.31,4.58-7.09,11.83-10.42,18.76-14.16,3.98-2.15,8.46-3.34,12.64-5.13,5.51-2.36,10.89-5.05,16.45-7.31,5.78-2.35,11.71-4.16,18.14-3.8,3.97,.22,8-.47,11.96-.15,4.23,.34,8.39,1.51,12.61,2.08,3.5,.47,4.19,3.13,4.53,5.73,.52,3.94,.55,7.94,.87,13.21Zm-37.04-15.5c-.18-.23-.36-.46-.55-.69-2.76,.83-5.59,1.47-8.26,2.52-7.39,2.92-14.77,5.89-22.03,9.1-4.52,2-8.82,4.52-13.24,6.75-4.61,2.33-8.66,5.27-11.55,9.69-3.06,4.67-5.47,9.28-5.26,15.28,.32,9.06,1.24,17.92,3.39,26.76,2.27,9.38,3.73,18.96,5.37,28.48,1.09,6.33,3.75,11.22,10.21,13.52,3.27,1.16,6.4,2.73,9.5,4.31,4,2.04,8.28,2.03,12.45,1.51,4.3-.54,8.69-1.34,12.02-4.73,1.67-1.7,3.63-3.13,5.49-4.64,4.34-3.51,8.52-7.14,11.78-11.76,5.5-7.81,10.1-16.11,13.46-25.04,2.22-5.93,4.17-11.97,6.06-18.02,.75-2.39,1.24-4.9,1.49-7.38,.66-6.56,1.22-13.14,1.62-19.72,.4-6.65,.81-13.31,.75-19.96-.04-4.16-1.23-5.64-4.07-5.96-5.04-.57-9.92-2.05-15.13-1.8-4.23,.2-7.57,1.72-10.51,4.45-.98,.91-1.5,2.29-2.41,3.3-6.43,7.12-12.74,14.32-17.39,22.81-.37,.67-1.79,.77-2.73,1.13-.24-1.01-1.01-2.33-.63-2.98,2.39-4.04,4.81-8.11,7.66-11.83,3.96-5.18,8.31-10.07,12.5-15.08Z"/><path d="M571.45,190.56c3.42,8.76,6.77,17.57,10.3,26.32,4.11,10.19,6.41,20.94,9.87,31.32,1.37,4.1,2.4,8.32,3.63,12.48,.35,1.19,1.03,2.54-.61,3.1-1.59,.54-2.78-.11-3.28-1.94-1.85-6.79-3.71-13.57-5.71-20.31-1.2-4.05-2.91-7.96-3.98-12.04-3.44-13.2-8.74-25.65-14.81-37.81-.36-.73-1.61-1.47-2.43-1.45-6.75,.18-13.49,.54-20.24,.85-.24,.01-.49,.05-.73,.05-5.62,.17-11.23,.41-16.85,.45-1.55,0-3.11-.55-4.65-.95-2.66-.7-5.29-1.47-8.21-2.29,.2,3.67,0,7.27,.67,10.7,2.51,13.06,1.36,26.18,.77,39.26-.16,3.67-2.07,7.29-3.41,10.85-.23,.6-1.67,.74-2.54,1.1-.3-.9-1.02-1.91-.83-2.69,.47-1.95,1.73-3.75,2-5.7,.7-4.9,1.35-9.85,1.43-14.79,.12-7.33-.12-14.67-.47-22-.23-4.79-.86-9.57-1.46-14.34-.14-1.1-.9-2.11-1.32-3.18-.2-.51-.58-1.29-.37-1.56,1.85-2.44,.55-5.04,.41-7.53-.76-13.11-1.63-26.21-2.49-39.32-.13-1.95-.4-3.88-.58-5.83-.55-6.15,.66-12.14,1.65-18.15,.65-3.94,.95-7.95,1.9-11.81,.66-2.69,.79-5.84,3.82-7.49,2.22-1.21,3.63-.83,4.68,1.44,1.41,3.07,2.67,6.25,4.42,9.13,1.85,3.04,4.27,5.72,6.32,8.65,3.5,5,7.04,9.97,10.31,15.12,3.58,5.64,7.6,11.16,10.14,17.27,4.16,10.04,11.93,18.13,14.88,28.79,.85,3.09,2.74,5.9,4.28,8.77,.31,.57,1.2,.83,1.84,1.21,.9,.53,2.29,.83,2.6,1.59,.28,.68-.61,1.85-.96,2.73Zm-56.94-90.14c-.71,1.61-1.39,2.54-1.52,3.54-1.21,9.41-3.8,18.66-3.48,28.25,.06,1.87,.36,3.73,.46,5.59,.44,8.55,.73,17.11,1.29,25.66,.45,6.9,1.22,13.77,1.82,20.4,3.26,.94,6.1,1.87,9.01,2.57,2.33,.56,4.72,1.12,7.1,1.2,3.24,.11,6.5-.26,9.75-.41,8.13-.36,16.26-.71,24.39-1.07,.12,0,.24-.18,.49-.39-3.06-6.68-5.88-13.52-9.28-20.07-3.82-7.34-8.05-14.47-12.29-21.59-4.84-8.12-9.61-16.29-14.92-24.1-4.3-6.32-10.38-11.42-12.8-19.59Z"/><path d="M336.18,180.16c1.72,.95,4.92-.79,4.83,2.54-.02,.87-2.23,1.69-3.43,2.54l-.77-.51c.44,3.25,.98,6.5,1.3,9.77,.47,4.72,1.18,9.46,1.06,14.17-.18,6.82,1.52,13.14,3.59,19.49,1.26,3.85,2.17,7.82,3.15,11.76,1.27,5.13,2.5,10.28,3.59,15.45,.15,.72-.69,2.35-.95,2.33-1.07-.1-2.76-.44-3.02-1.13-.88-2.39-1.21-4.98-1.84-7.47-2.15-8.52-4.15-17.08-6.57-25.52-1.33-4.63-1.66-9.25-1.89-14-.39-8.11-1.34-16.19-2.06-24.4-12.98,1.94-25.23,.45-37.6-1.43-.11,.71-.24,1.26-.28,1.81-.52,7.46-.82,14.94-1.6,22.38-.43,4.09-1.67,8.09-2.52,12.14-.19,.89-.09,1.89-.46,2.67-.4,.84-1.2,1.49-1.83,2.22-.69-.76-2-1.55-1.97-2.28,.11-2.71,.59-5.41,1.08-8.09,.64-3.5,1.7-6.94,2.06-10.47,.72-7.01,1.09-14.05,1.62-21.35-2.07-.31-3.65-.37-5.1-.84-.84-.27-1.45-1.22-2.17-1.86,.7-.67,1.33-1.75,2.13-1.91,1.33-.27,2.78,.06,4.62,.16-.24-2.57-.32-5.12-.75-7.61-.89-5.07-.61-9.98,.49-15.06,2.33-10.72,4.2-21.54,6.07-32.35,1.39-8.03,2.5-16.11,3.73-24.17,.09-.57,.19-1.16,.16-1.74-.34-7.08-.14-14.1,2.16-20.91,.36-1.07,.01-2.39,.41-3.44,.28-.75,1.24-1.73,1.9-1.72,.64,0,1.76,1.07,1.84,1.76,1.63,15.29,7.98,29,14.29,42.71,1.04,2.26,2.53,4.31,3.5,6.59,3.55,8.33,4.83,17.27,6.46,26.07,1.87,10.14,3.06,20.4,4.55,30.61,.06,.4,.15,.8,.22,1.11Zm-30.67-94.71l-.4,.02c-.11,.6-.35,1.21-.31,1.8,.59,11.23-1.29,22.23-3.28,33.2-2.25,12.42-4.7,24.81-6.89,37.25-.57,3.23-.67,6.58-.6,9.86,.07,3.14,.88,6.27,.9,9.42,.02,2.27,1.02,2.81,2.92,3,3.3,.34,6.58,1.01,9.89,1.19,6.63,.38,13.27,.6,19.91,.72,1.42,.02,2.86-.68,4.28-1.05,.03-.56,.1-.9,.05-1.21-1.5-10.37-2.66-20.8-4.61-31.08-1.71-9.02-3-18.21-6.91-26.7-4.09-8.89-8.2-17.78-12.07-26.77-1.32-3.06-1.94-6.43-2.88-9.66Z"/><path d="M211.27,168.98c6.51,2.7,12.74,6.02,19.03,9.39,8.32,4.45,14.84,10.95,22.23,16.41,5.5,4.06,10.61,8.72,15.56,13.46,2.28,2.18,3.76,5.19,5.67,7.78,1.81,2.46,3.63,4.89,6.88,5.74,.65,.17,1.39,1.39,1.4,2.13,0,.52-1.27,1.59-1.78,1.49-1.79-.37-4.03-.66-5.15-1.87-3.41-3.68-6.35-7.79-9.53-11.69-1.4-1.72-2.76-3.55-4.45-4.96-6.64-5.53-13.31-11.03-20.15-16.29-3.73-2.87-7.78-5.34-11.79-7.82-4.01-2.48-8.08-4.86-12.24-7.06-2.24-1.19-4.73-1.91-7.37-2.95-.64,5.23-1.08,10-1.83,14.73-1.23,7.86-2.64,15.69-4,23.53-.29,1.7-.53,3.43-1.09,5.05-.26,.76-1.22,1.78-1.86,1.77-.66,0-1.87-1.11-1.87-1.72,.01-2.01,.41-4.03,.77-6.03,.79-4.48,1.73-8.93,2.44-13.42,1.1-6.98,2.13-13.97,3.02-20.98,.18-1.39-.42-2.88-.63-4.33-.09-.65-.27-1.34-.15-1.96,1.63-8.28,.61-16.43-.86-24.61-.51-2.85-.65-5.78-.75-8.68-.24-6.99,.28-14.07-.68-20.95-1.49-10.82-.44-21.61-.78-32.41-.04-1.31,.43-3.17,1.35-3.85,1.43-1.06,2.84,.1,4.01,1.36,2.36,2.52,4.82,4.95,7.31,7.35,2.67,2.58,5.63,4.89,8.06,7.67,2.64,3.03,5.03,6.33,7.12,9.77,1.89,3.11,4.18,6.45,4.6,9.89,.95,7.7,1,15.38-1.91,23.05-2.87,7.55-7.09,14.06-11.96,20.29-2.82,3.62-5.76,7.15-8.64,10.71Zm-1.71-4.7c2.24-2.35,4.29-4.13,5.89-6.26,2.62-3.49,5.2-7.06,7.32-10.87,2.48-4.46,5.26-9.01,6.42-13.88,1.25-5.24,.97-10.9,.93-16.37-.01-1.93-1.06-3.96-2.02-5.74-1.32-2.46-3.12-4.65-4.51-7.07-3.54-6.13-8.89-10.55-14.08-15.13-1.36-1.2-2.68-2.46-4.03-3.7-.05,.11-.12,.18-.12,.26-.03,8.08-.81,16.25,.13,24.21,1,8.48,1.17,16.9,1.28,25.38,.02,1.41,.2,2.81,.33,4.22,.55,5.6,1.1,11.2,1.66,16.8,.24,2.47,.48,4.94,.79,8.15Z"/><path d="M177.65,163.3c-4.44,.27-8.83,.27-13.15,.85-8.03,1.09-16.02,2.5-24.01,3.88-.7,.12-1.55,.89-1.84,1.57-1.92,4.6-3.8,9.21-5.52,13.89-2.66,7.19-4.83,14.59-7.92,21.59-1.37,3.1-2.31,6.18-3.13,9.39-.16,.62-1.32,1.42-1.94,1.36-.64-.06-1.76-1.14-1.69-1.65,.38-2.99,.85-6,1.66-8.9,.59-2.08,1.84-3.97,2.67-5.99,1.82-4.43,3.56-8.9,5.35-13.35,1.7-4.23,3.45-8.43,5.12-12.67,.48-1.21,.76-2.49,1.14-3.77-2.25,0-4.32,0-6.38,0-1.38,0-2.82-.34-2.49-1.94,.17-.82,1.57-1.52,2.55-2,.61-.3,1.47-.06,2.22-.07,4.93-.07,7.69-1.9,8.67-6.67,1.65-8.04,2.88-16.17,4.35-24.26,.62-3.43,1.57-6.8,2.04-10.25,.64-4.67,1.11-9.38,1.38-14.09,.22-3.9-.05-7.83,.12-11.74,.04-.95,.89-2.54,1.53-2.62,.98-.13,2.36,.53,3.11,1.31,4.42,4.58,8.7,9.27,13.02,13.94,2.25,2.43,4.65,4.74,6.66,7.35,2.51,3.26,5.39,6.51,6.83,10.26,1.66,4.32,2.18,9.15,2.7,13.81,.57,5.03,.54,10.14,.89,15.2,.05,.74,.66,1.57,1.23,2.13,1.1,1.09,1.11,2.02,.21,3.26-.6,.83-1.2,1.93-1.2,2.9,.04,9.28-1.16,18.44-2.72,27.54-1.63,9.57-4.27,18.87-8.08,27.84-.98,2.31-1.09,4.97-1.84,7.4-.26,.83-1.23,1.44-1.88,2.16-.67-.7-1.96-1.48-1.89-2.1,.34-3.03,.78-6.09,1.67-8.99,1.21-3.93,3.12-7.66,4.3-11.6,4.21-14,6.24-28.35,6.46-42.96,0-.48-.1-.97-.21-2Zm-.26-4.56c-.19-5.63-.3-11.53-.62-17.42-.48-8.76-4.08-16.09-10.38-22.17-3.33-3.21-6.51-6.56-9.73-9.88-1.75-1.8-3.45-3.66-5.17-5.49l-.78,.33c.52,10.2-.92,20.1-3.13,30.04-2.17,9.77-2.36,19.97-5.99,29.02,11.76-1.45,23.73-2.93,35.81-4.42Z"/><path d="M761.51,71.86c-.54,3.38-1.1,6.73-1.62,10.09-.92,6.01-1.87,12.02-2.71,18.05-.27,1.93-.26,3.9-.29,5.85-.18,12.4-.1,24.8-.58,37.19-.41,10.65-1.55,21.27-2.18,31.92-.34,5.78-.07,11.59-.45,17.36-.53,7.88-2.05,15.6-4.2,23.23-2.2,7.8-3.87,15.74-5.72,23.63-.24,1.01,.08,2.18-.25,3.14-.23,.68-1.11,1.55-1.73,1.57-.62,.02-1.74-.83-1.83-1.42-.25-1.67-.35-3.45-.02-5.1,.91-4.6,1.99-9.18,3.15-13.72,1.49-5.81,3.43-11.52,4.63-17.38,1.14-5.57,1.92-11.26,2.22-16.93,.65-12.29,.26-24.67,1.45-36.9,1.6-16.53,1.25-33.06,1.69-49.59,.17-6.37,1.65-12.7,2.57-19.05,.56-3.91,1.19-7.81,1.86-12.24-3.98,.56-7.51,.94-10.99,1.55-7.27,1.27-14.49,2.97-21.8,3.91-6.83,.87-13.77,1.02-20.66,1.33-.61,.03-1.76-1.11-1.78-1.73-.02-.64,1.02-1.33,1.64-1.95,.14-.14,.47-.1,.71-.11,5.6-.34,11.21-.54,16.78-1.06,3.06-.29,6.06-1.17,9.09-1.7,5.19-.91,10.39-1.79,15.6-2.6,3.45-.54,6.92-.89,10.38-1.4,.68-.1,1.28-.65,1.95-.82,.8-.2,1.67-.38,2.46-.26,1.3,.19,2.57,.93,3.84,.91,13.36-.25,26.72-.61,40.09-.92,.89-.02,1.91-.16,2.65,.2,.72,.35,1.65,1.3,1.61,1.92-.04,.63-1.1,1.33-1.85,1.72-.52,.27-1.28,.06-1.93,.07-9.45,.16-18.91,.28-28.36,.51-5.11,.13-10.22,.47-15.44,.71Z"/><path d="M491.54,216.34c-.25-2.83-.15-5.59-.82-8.15-.57-2.21-1.89-4.27-3.09-6.26-2.95-4.88-6.09-9.59-10.61-13.26-1.39-1.13-2-3.2-3.32-4.46-3.95-3.76-8.21-7.21-12.11-11.02-4.53-4.44-9.94-7.52-15.33-10.68-4.84-2.84-9.77-5.53-14.57-8.43-3.19-1.92-6.38-3.89-9.32-6.17-5.64-4.39-7.48-11.11-10.04-17.33-1.05-2.55-1.91-5.21-2.51-7.9-.35-1.53-.35-3.31,.07-4.82,3.42-12.08,9.16-23.09,16-33.53,2.94-4.49,7.7-6.91,12.63-8.53,6.74-2.22,13.16-5.02,19.41-8.38,3.83-2.06,8.09-3.34,12.23-4.78,.61-.21,1.6,.63,2.41,.99-.39,.87-.55,2.22-1.2,2.52-2.79,1.31-5.77,2.18-8.58,3.45-4.36,1.97-8.58,4.25-12.97,6.16-3.33,1.46-6.88,2.42-10.24,3.83-4.9,2.07-9.46,4.6-12.16,9.57-2.64,4.87-5.79,9.48-8.11,14.49-2.23,4.84-3.75,10.01-5.42,15.09-.35,1.06-.26,2.44,.09,3.51,1.58,4.79,3.23,9.56,5.05,14.26,1.81,4.69,4.7,8.46,9.46,10.67,1.97,.91,3.57,2.57,5.46,3.67,7.53,4.37,15.21,8.48,22.62,13.04,3.14,1.93,5.77,4.69,8.57,7.13,2.95,2.57,5.93,5.11,8.73,7.84,1.73,1.69,3.14,3.7,4.69,5.57,.31,.37,.52,.86,.88,1.15,5.59,4.57,9.19,10.57,12.76,16.74,4.42,7.64,3.75,15.5,1.69,23.28-.87,3.3-3.65,6.19-5.89,9-2.53,3.19-5.33,6.17-8.2,9.06-1.34,1.35-3.06,2.37-4.73,3.33-1.76,1.01-3.7,1.7-5.5,2.65-6.19,3.27-12.9,3.69-19.68,3.66-.78,0-1.86-.17-2.27-.68-.61-.75-1.03-1.91-.96-2.85,.03-.41,1.59-1.15,2.28-.99,6.22,1.46,12.03-.1,17.81-2.15,7.49-2.66,12.93-7.78,17.83-13.9,2.73-3.41,5.13-6.82,6.27-11,.49-1.77,.47-3.69,.67-5.42Z"/><path d="M35.51,245.35c-.7-.67-1.9-1.3-1.94-2-.04-.71,.92-1.98,1.67-2.17,4.48-1.16,9.12-1.77,13.51-3.18,3.99-1.28,7.94-3,11.53-5.15,16.17-9.69,29.87-22.54,44.06-34.77,1.14-.98,2.24-2,3.39-2.96,3.7-3.09,3.93-6.7,1.62-10.92-2.95-5.38-7.97-7.83-13.01-10.31-15.44-7.59-28.84-17.91-40.38-30.57-2.55-2.8-4.03-6.6-5.92-9.98-1.09-1.96-2.21-3.93-2.99-6.02-2.94-7.9-2.41-15.91,.01-23.76,.91-2.94,2.89-5.55,4.5-8.25,.39-.66,1.17-1.2,1.89-1.55,4.89-2.37,9.76-4.77,14.72-6.98,6.81-3.03,13.69-5.88,20.53-8.84,4.51-1.96,8.97-4.05,13.52-5.93,.72-.3,1.78,.24,2.68,.39-.27,1.2-.43,2.45-.87,3.59-.15,.39-.98,.53-1.52,.75-3.08,1.27-6.17,2.53-9.25,3.81-2.83,1.18-5.65,2.37-8.47,3.56-4.42,1.87-8.86,3.69-13.26,5.61-4.76,2.08-9.56,4.08-14.16,6.47-1.62,.84-2.93,2.57-4,4.15-2.64,3.91-3.98,8.26-4.13,13.05-.19,5.85,1.36,11.04,3.45,16.56,3.98,10.49,12.21,16.9,19.99,23.78,8.76,7.76,18.85,13.71,29.47,18.59,5.64,2.59,9.36,6.76,12.18,11.99,1.84,3.41,.25,10.17-3.03,13-8.01,6.91-16.16,13.66-24.07,20.68-8.01,7.1-16.58,13.44-25.8,18.79-4.46,2.58-9.5,4.27-14.42,5.93-3.57,1.21-7.38,1.71-11.48,2.62Z"/><path d="M925.3,104.91c.69,5.8,.87,11.71,2.22,17.35,.95,3.98,3.42,7.61,5.34,11.34,.85,1.64,2.18,3.03,3.01,4.68,2.92,5.83,7.79,10.16,11.49,15.37,3.56,5.01,7.16,10.08,9.95,15.53,4.59,8.95,4.78,18.21,.34,27.49-1.35,2.82-1.88,6.03-2.99,8.98-1.74,4.61-3.37,9.3-5.61,13.67-1.4,2.74-3.82,4.96-5.79,7.4-1.61,2-3.32,3.93-4.85,6-5.29,7.15-12.52,12.28-19.06,18.09-3.44,3.06-7.67,5.09-12.45,5.67-2,.24-3.92,1.03-5.89,1.53-.62,.16-1.37,.4-1.91,.21-.88-.32-1.63-.98-2.44-1.49,.64-.77,1.15-1.98,1.95-2.23,3.48-1.06,7.03-1.96,10.6-2.7,3.88-.8,6.67-3.37,9.49-5.77,4.89-4.14,9.66-8.43,14.25-12.9,2.35-2.29,4.19-5.09,6.26-7.66,1.67-2.07,3.5-4.03,4.99-6.22,1.44-2.11,2.74-4.36,3.74-6.7,1.62-3.8,3.32-7.64,4.29-11.63,1.39-5.72,4.66-10.87,4.61-17.06-.04-4.82-1.05-9.25-3.45-13.29-2.39-4.04-5.03-7.94-7.79-11.73-3.29-4.51-7.15-8.63-10.16-13.3-3.67-5.69-6.72-11.78-10.01-17.72-3.24-5.85-3.63-12.24-3.48-18.72,.17-6.92,.28-13.85,.51-20.77,.15-4.44,2.6-7.35,6.57-9.07,4.38-1.89,8.7-4,13.21-5.51,6.12-2.05,12.16-4.61,18.88-4.13,3.41,.24,6.85,.02,10.28,.06,1.43,.02,2.98,.17,2.86,2.15-.11,1.86-1.62,1.74-2.94,1.75-2.94,0-5.89,.17-8.81-.03-4.75-.33-9.21,.76-13.59,2.3-5.23,1.84-10.52,3.56-15.61,5.74-4.16,1.78-7.27,4.5-7.04,9.84,.19,4.45-.38,8.94-.62,13.41l-.38,.08Z"/></svg>